<?xml version="1.0" encoding="UTF-8"?>
<svg width="128" height="128" viewBox="0 0 512 512" xmlns="http://www.w3.org/2000/svg">
  <defs>
    <linearGradient id="bg" x1="0%" y1="0%" x2="100%" y2="100%">
      <stop offset="0%" style="stop-color:#667eea"/>
      <stop offset="100%" style="stop-color:#764ba2"/>
    </linearGradient>
  </defs>
  <!-- 背景 -->
  <rect width="512" height="512" rx="80" fill="url(#bg)"/>
  <!-- 車輛圖標 -->
  <g transform="translate(100, 140)">
    <!-- 車身 -->
    <path d="M290 120 L270 60 L180 40 L120 40 L100 60 L30 120 L10 140 L10 180 L30 200 L290 200 L310 180 L310 140 Z" 
          fill="white" opacity="0.95"/>
    <!-- 車窗 -->
    <path d="M260 80 L245 55 L185 45 L130 45 L115 55 L60 80 L60 120 L260 120 Z" 
          fill="#667eea" opacity="0.6"/>
    <!-- 車輪 -->
    <circle cx="80" cy="200" r="40" fill="#333"/>
    <circle cx="80" cy="200" r="25" fill="#666"/>
    <circle cx="80" cy="200" r="10" fill="#999"/>
    <circle cx="240" cy="200" r="40" fill="#333"/>
    <circle cx="240" cy="200" r="25" fill="#666"/>
    <circle cx="240" cy="200" r="10" fill="#999"/>
  </g>
  <!-- 文字：寶 -->
  <text x="256" y="420" font-family="Arial, sans-serif" font-size="80" 
        font-weight="bold" fill="white" text-anchor="middle">CRM</text>
</svg>